<mxfile host="app.diagrams.net" modified="2020-12-20T08:18:48.565Z" agent="5.0 (Windows NT 10.0; Win64; x64) AppleWebKit/537.36 (KHTML, like Gecko) Chrome/87.0.4280.88 Safari/537.36" etag="2k14YwTI0aWWgOFvxWSL" version="14.1.1" type="github">
  <diagram id="pv2bq_7fqts3jteD0jbZ" name="第 1 页">
    <mxGraphModel dx="2329" dy="675" grid="1" gridSize="10" guides="1" tooltips="1" connect="1" arrows="1" fold="1" page="1" pageScale="1" pageWidth="827" pageHeight="1169" math="0" shadow="0">
      <root>
        <mxCell id="0" />
        <mxCell id="1" parent="0" />
        <mxCell id="aVnP62HoHRW40BTB75-h-1" value="消息状态：&lt;br&gt;0：发送中&lt;br&gt;1：mq服务签收消息成功&lt;br&gt;2：mq服务签收消息失败&lt;br&gt;3：消费端签收消息成功&lt;br&gt;4：消费端签收消息失败" style="rounded=0;whiteSpace=wrap;html=1;align=left;gradientColor=#d5739d;fillColor=#e6d0de;strokeColor=#996185;" vertex="1" parent="1">
          <mxGeometry x="160" y="20" width="150" height="90" as="geometry" />
        </mxCell>
        <mxCell id="aVnP62HoHRW40BTB75-h-2" value="" style="rounded=0;whiteSpace=wrap;html=1;align=left;fillColor=#f8cecc;strokeColor=#b85450;" vertex="1" parent="1">
          <mxGeometry x="414" y="200" width="200" height="440" as="geometry" />
        </mxCell>
        <mxCell id="aVnP62HoHRW40BTB75-h-33" style="edgeStyle=orthogonalEdgeStyle;rounded=0;orthogonalLoop=1;jettySize=auto;html=1;entryX=1;entryY=0.5;entryDx=0;entryDy=0;" edge="1" parent="1" source="aVnP62HoHRW40BTB75-h-3" target="aVnP62HoHRW40BTB75-h-37">
          <mxGeometry relative="1" as="geometry">
            <mxPoint x="370" y="275" as="targetPoint" />
          </mxGeometry>
        </mxCell>
        <mxCell id="aVnP62HoHRW40BTB75-h-3" value="ConfirmListener" style="rounded=0;whiteSpace=wrap;html=1;align=center;fillColor=#d80073;strokeColor=#A50040;fontColor=#ffffff;" vertex="1" parent="1">
          <mxGeometry x="444" y="250" width="140" height="50" as="geometry" />
        </mxCell>
        <mxCell id="aVnP62HoHRW40BTB75-h-29" style="edgeStyle=orthogonalEdgeStyle;rounded=0;orthogonalLoop=1;jettySize=auto;html=1;" edge="1" parent="1" source="aVnP62HoHRW40BTB75-h-4" target="aVnP62HoHRW40BTB75-h-8">
          <mxGeometry relative="1" as="geometry" />
        </mxCell>
        <mxCell id="aVnP62HoHRW40BTB75-h-4" value="ReturnListener" style="rounded=0;whiteSpace=wrap;html=1;align=center;fillColor=#d80073;strokeColor=#A50040;fontColor=#ffffff;" vertex="1" parent="1">
          <mxGeometry x="444" y="380" width="140" height="50" as="geometry" />
        </mxCell>
        <mxCell id="aVnP62HoHRW40BTB75-h-19" style="edgeStyle=orthogonalEdgeStyle;rounded=0;orthogonalLoop=1;jettySize=auto;html=1;entryX=-0.003;entryY=0.696;entryDx=0;entryDy=0;entryPerimeter=0;" edge="1" parent="1" source="aVnP62HoHRW40BTB75-h-5" target="aVnP62HoHRW40BTB75-h-17">
          <mxGeometry relative="1" as="geometry" />
        </mxCell>
        <mxCell id="aVnP62HoHRW40BTB75-h-5" value="sender" style="rounded=0;whiteSpace=wrap;html=1;align=center;fillColor=#d80073;strokeColor=#A50040;fontColor=#ffffff;" vertex="1" parent="1">
          <mxGeometry x="444" y="480" width="140" height="50" as="geometry" />
        </mxCell>
        <mxCell id="aVnP62HoHRW40BTB75-h-13" style="edgeStyle=orthogonalEdgeStyle;rounded=0;orthogonalLoop=1;jettySize=auto;html=1;entryX=1;entryY=0;entryDx=0;entryDy=37.5;entryPerimeter=0;" edge="1" parent="1" source="aVnP62HoHRW40BTB75-h-6" target="aVnP62HoHRW40BTB75-h-10">
          <mxGeometry relative="1" as="geometry" />
        </mxCell>
        <mxCell id="aVnP62HoHRW40BTB75-h-14" style="edgeStyle=orthogonalEdgeStyle;rounded=0;orthogonalLoop=1;jettySize=auto;html=1;exitX=0;exitY=0.5;exitDx=0;exitDy=0;entryX=1;entryY=0;entryDx=0;entryDy=37.5;entryPerimeter=0;" edge="1" parent="1" source="aVnP62HoHRW40BTB75-h-6" target="aVnP62HoHRW40BTB75-h-9">
          <mxGeometry relative="1" as="geometry" />
        </mxCell>
        <mxCell id="aVnP62HoHRW40BTB75-h-6" value="biz_server组件" style="rounded=0;whiteSpace=wrap;html=1;align=center;fillColor=#d80073;strokeColor=#A50040;fontColor=#ffffff;" vertex="1" parent="1">
          <mxGeometry x="444" y="570" width="140" height="50" as="geometry" />
        </mxCell>
        <mxCell id="aVnP62HoHRW40BTB75-h-7" value="producer（Order服务）" style="text;html=1;strokeColor=none;fillColor=none;align=center;verticalAlign=middle;whiteSpace=wrap;rounded=0;" vertex="1" parent="1">
          <mxGeometry x="464" y="210" width="90" height="20" as="geometry" />
        </mxCell>
        <mxCell id="aVnP62HoHRW40BTB75-h-8" value="msg_db" style="shape=cylinder3;whiteSpace=wrap;html=1;boundedLbl=1;backgroundOutline=1;size=15;align=center;fillColor=#b1ddf0;strokeColor=#10739e;" vertex="1" parent="1">
          <mxGeometry x="130" y="375" width="70" height="60" as="geometry" />
        </mxCell>
        <mxCell id="aVnP62HoHRW40BTB75-h-9" value="biz_db" style="shape=cylinder3;whiteSpace=wrap;html=1;boundedLbl=1;backgroundOutline=1;size=15;align=center;fillColor=#b0e3e6;strokeColor=#0e8088;" vertex="1" parent="1">
          <mxGeometry x="130" y="520" width="70" height="60" as="geometry" />
        </mxCell>
        <mxCell id="aVnP62HoHRW40BTB75-h-10" value="msg_db" style="shape=cylinder3;whiteSpace=wrap;html=1;boundedLbl=1;backgroundOutline=1;size=15;align=center;fillColor=#b1ddf0;strokeColor=#10739e;" vertex="1" parent="1">
          <mxGeometry x="130" y="590" width="70" height="60" as="geometry" />
        </mxCell>
        <mxCell id="aVnP62HoHRW40BTB75-h-15" value="1. 消息入库" style="text;html=1;align=center;verticalAlign=middle;resizable=0;points=[];autosize=1;" vertex="1" parent="1">
          <mxGeometry x="320" y="570" width="80" height="20" as="geometry" />
        </mxCell>
        <mxCell id="aVnP62HoHRW40BTB75-h-16" value="插入，需要在同一个事物中（跨库事务）" style="ellipse;shape=cloud;whiteSpace=wrap;html=1;align=center;gradientColor=#d5739d;fillColor=#e6d0de;strokeColor=#996185;" vertex="1" parent="1">
          <mxGeometry x="-20" y="540" width="140" height="100" as="geometry" />
        </mxCell>
        <mxCell id="aVnP62HoHRW40BTB75-h-22" style="edgeStyle=orthogonalEdgeStyle;rounded=0;orthogonalLoop=1;jettySize=auto;html=1;exitX=-0.019;exitY=0.307;exitDx=0;exitDy=0;entryX=1;entryY=0.5;entryDx=0;entryDy=0;exitPerimeter=0;" edge="1" parent="1" source="aVnP62HoHRW40BTB75-h-17" target="aVnP62HoHRW40BTB75-h-21">
          <mxGeometry relative="1" as="geometry" />
        </mxCell>
        <mxCell id="aVnP62HoHRW40BTB75-h-43" style="edgeStyle=orthogonalEdgeStyle;rounded=0;orthogonalLoop=1;jettySize=auto;html=1;entryX=0.001;entryY=0.196;entryDx=0;entryDy=0;entryPerimeter=0;" edge="1" parent="1" target="aVnP62HoHRW40BTB75-h-42">
          <mxGeometry relative="1" as="geometry">
            <mxPoint x="1080" y="286" as="sourcePoint" />
          </mxGeometry>
        </mxCell>
        <mxCell id="aVnP62HoHRW40BTB75-h-17" value="&lt;div&gt;&lt;span&gt;MQ-server&lt;/span&gt;&lt;/div&gt;" style="rounded=0;whiteSpace=wrap;html=1;align=center;fillColor=#dae8fc;strokeColor=#6c8ebf;" vertex="1" parent="1">
          <mxGeometry x="960" y="200" width="120" height="440" as="geometry" />
        </mxCell>
        <mxCell id="aVnP62HoHRW40BTB75-h-20" value="2. 发送消息" style="text;html=1;align=center;verticalAlign=middle;resizable=0;points=[];autosize=1;" vertex="1" parent="1">
          <mxGeometry x="700" y="480" width="80" height="20" as="geometry" />
        </mxCell>
        <mxCell id="aVnP62HoHRW40BTB75-h-24" style="edgeStyle=orthogonalEdgeStyle;rounded=0;orthogonalLoop=1;jettySize=auto;html=1;entryX=1;entryY=0.5;entryDx=0;entryDy=0;exitX=0.5;exitY=0;exitDx=0;exitDy=0;" edge="1" parent="1" source="aVnP62HoHRW40BTB75-h-21" target="aVnP62HoHRW40BTB75-h-3">
          <mxGeometry relative="1" as="geometry" />
        </mxCell>
        <mxCell id="aVnP62HoHRW40BTB75-h-25" style="edgeStyle=orthogonalEdgeStyle;rounded=0;orthogonalLoop=1;jettySize=auto;html=1;entryX=1;entryY=0.5;entryDx=0;entryDy=0;exitX=0.5;exitY=1;exitDx=0;exitDy=0;" edge="1" parent="1" source="aVnP62HoHRW40BTB75-h-21" target="aVnP62HoHRW40BTB75-h-4">
          <mxGeometry relative="1" as="geometry" />
        </mxCell>
        <mxCell id="aVnP62HoHRW40BTB75-h-21" value="消息可路由" style="rhombus;whiteSpace=wrap;html=1;align=center;" vertex="1" parent="1">
          <mxGeometry x="740" y="300" width="113" height="70" as="geometry" />
        </mxCell>
        <mxCell id="aVnP62HoHRW40BTB75-h-23" value="3. boker回调" style="text;html=1;align=center;verticalAlign=middle;resizable=0;points=[];autosize=1;" vertex="1" parent="1">
          <mxGeometry x="860" y="320" width="80" height="20" as="geometry" />
        </mxCell>
        <mxCell id="aVnP62HoHRW40BTB75-h-26" value="Y：消息可达" style="text;html=1;align=center;verticalAlign=middle;resizable=0;points=[];autosize=1;" vertex="1" parent="1">
          <mxGeometry x="650" y="250" width="80" height="20" as="geometry" />
        </mxCell>
        <mxCell id="aVnP62HoHRW40BTB75-h-28" value="N：消息不可达" style="text;html=1;align=center;verticalAlign=middle;resizable=0;points=[];autosize=1;" vertex="1" parent="1">
          <mxGeometry x="640" y="380" width="100" height="20" as="geometry" />
        </mxCell>
        <mxCell id="aVnP62HoHRW40BTB75-h-30" value="msg_db" style="shape=cylinder3;whiteSpace=wrap;html=1;boundedLbl=1;backgroundOutline=1;size=15;align=center;fillColor=#b1ddf0;strokeColor=#10739e;" vertex="1" parent="1">
          <mxGeometry x="130" y="245" width="70" height="60" as="geometry" />
        </mxCell>
        <mxCell id="aVnP62HoHRW40BTB75-h-34" value="4N. 更新消息为2" style="text;html=1;align=center;verticalAlign=middle;resizable=0;points=[];autosize=1;" vertex="1" parent="1">
          <mxGeometry x="210" y="380" width="100" height="20" as="geometry" />
        </mxCell>
        <mxCell id="aVnP62HoHRW40BTB75-h-38" style="edgeStyle=orthogonalEdgeStyle;rounded=0;orthogonalLoop=1;jettySize=auto;html=1;entryX=0.5;entryY=0;entryDx=0;entryDy=0;entryPerimeter=0;exitX=0.5;exitY=0;exitDx=0;exitDy=0;" edge="1" parent="1" source="aVnP62HoHRW40BTB75-h-37" target="aVnP62HoHRW40BTB75-h-30">
          <mxGeometry relative="1" as="geometry" />
        </mxCell>
        <mxCell id="aVnP62HoHRW40BTB75-h-39" style="edgeStyle=orthogonalEdgeStyle;rounded=0;orthogonalLoop=1;jettySize=auto;html=1;entryX=0.5;entryY=1;entryDx=0;entryDy=0;entryPerimeter=0;exitX=0.5;exitY=1;exitDx=0;exitDy=0;" edge="1" parent="1" source="aVnP62HoHRW40BTB75-h-37" target="aVnP62HoHRW40BTB75-h-30">
          <mxGeometry relative="1" as="geometry" />
        </mxCell>
        <mxCell id="aVnP62HoHRW40BTB75-h-37" value="ack=true" style="rhombus;whiteSpace=wrap;html=1;align=center;" vertex="1" parent="1">
          <mxGeometry x="270" y="252.5" width="80" height="45" as="geometry" />
        </mxCell>
        <mxCell id="aVnP62HoHRW40BTB75-h-40" value="4YN. 更新消息为2" style="text;html=1;align=center;verticalAlign=middle;resizable=0;points=[];autosize=1;" vertex="1" parent="1">
          <mxGeometry x="180" y="305" width="110" height="20" as="geometry" />
        </mxCell>
        <mxCell id="aVnP62HoHRW40BTB75-h-41" value="4YY. 更新消息为1" style="text;html=1;align=center;verticalAlign=middle;resizable=0;points=[];autosize=1;" vertex="1" parent="1">
          <mxGeometry x="180" y="210" width="110" height="20" as="geometry" />
        </mxCell>
        <mxCell id="aVnP62HoHRW40BTB75-h-42" value="" style="rounded=0;whiteSpace=wrap;html=1;align=left;fillColor=#d5e8d4;strokeColor=#82b366;" vertex="1" parent="1">
          <mxGeometry x="1300" y="200" width="200" height="440" as="geometry" />
        </mxCell>
        <mxCell id="aVnP62HoHRW40BTB75-h-44" value="5. 消费消息" style="text;html=1;align=center;verticalAlign=middle;resizable=0;points=[];autosize=1;" vertex="1" parent="1">
          <mxGeometry x="1110" y="260" width="80" height="20" as="geometry" />
        </mxCell>
        <mxCell id="aVnP62HoHRW40BTB75-h-46" style="edgeStyle=orthogonalEdgeStyle;rounded=0;orthogonalLoop=1;jettySize=auto;html=1;entryX=0.988;entryY=0.433;entryDx=0;entryDy=0;entryPerimeter=0;exitX=0.5;exitY=0;exitDx=0;exitDy=0;" edge="1" parent="1" source="aVnP62HoHRW40BTB75-h-45" target="aVnP62HoHRW40BTB75-h-17">
          <mxGeometry relative="1" as="geometry">
            <mxPoint x="1270" y="490" as="sourcePoint" />
          </mxGeometry>
        </mxCell>
        <mxCell id="aVnP62HoHRW40BTB75-h-48" style="edgeStyle=orthogonalEdgeStyle;rounded=0;orthogonalLoop=1;jettySize=auto;html=1;entryX=0.995;entryY=0.818;entryDx=0;entryDy=0;entryPerimeter=0;exitX=0.5;exitY=1;exitDx=0;exitDy=0;" edge="1" parent="1" source="aVnP62HoHRW40BTB75-h-45" target="aVnP62HoHRW40BTB75-h-17">
          <mxGeometry relative="1" as="geometry">
            <Array as="points">
              <mxPoint x="1405" y="560" />
            </Array>
          </mxGeometry>
        </mxCell>
        <mxCell id="aVnP62HoHRW40BTB75-h-45" value="消费消息异常" style="rhombus;whiteSpace=wrap;html=1;align=center;" vertex="1" parent="1">
          <mxGeometry x="1340" y="440" width="130" height="50" as="geometry" />
        </mxCell>
        <mxCell id="aVnP62HoHRW40BTB75-h-49" value="6. Y 更新消息状态为4，发送nack" style="text;html=1;align=center;verticalAlign=middle;resizable=0;points=[];autosize=1;" vertex="1" parent="1">
          <mxGeometry x="1110" y="370" width="190" height="20" as="geometry" />
        </mxCell>
        <mxCell id="aVnP62HoHRW40BTB75-h-50" value="6. N 更新消息状态为3，发送ack" style="text;html=1;align=center;verticalAlign=middle;resizable=0;points=[];autosize=1;" vertex="1" parent="1">
          <mxGeometry x="1110" y="540" width="190" height="20" as="geometry" />
        </mxCell>
        <mxCell id="aVnP62HoHRW40BTB75-h-52" value="消费者&lt;br&gt;（product商品服务）" style="text;html=1;strokeColor=none;fillColor=none;align=center;verticalAlign=middle;whiteSpace=wrap;rounded=0;" vertex="1" parent="1">
          <mxGeometry x="1340" y="210" width="130" height="35" as="geometry" />
        </mxCell>
        <mxCell id="aVnP62HoHRW40BTB75-h-66" style="edgeStyle=orthogonalEdgeStyle;rounded=0;orthogonalLoop=1;jettySize=auto;html=1;" edge="1" parent="1" source="aVnP62HoHRW40BTB75-h-53" target="aVnP62HoHRW40BTB75-h-10">
          <mxGeometry relative="1" as="geometry" />
        </mxCell>
        <mxCell id="aVnP62HoHRW40BTB75-h-67" style="edgeStyle=orthogonalEdgeStyle;rounded=0;orthogonalLoop=1;jettySize=auto;html=1;entryX=0.5;entryY=0;entryDx=0;entryDy=0;" edge="1" parent="1" source="aVnP62HoHRW40BTB75-h-53" target="aVnP62HoHRW40BTB75-h-54">
          <mxGeometry relative="1" as="geometry" />
        </mxCell>
        <mxCell id="aVnP62HoHRW40BTB75-h-53" value="定时任务" style="shape=process;whiteSpace=wrap;html=1;backgroundOutline=1;align=center;fillColor=#fad9d5;strokeColor=#ae4132;" vertex="1" parent="1">
          <mxGeometry x="105" y="740" width="120" height="60" as="geometry" />
        </mxCell>
        <mxCell id="aVnP62HoHRW40BTB75-h-57" style="edgeStyle=orthogonalEdgeStyle;rounded=0;orthogonalLoop=1;jettySize=auto;html=1;entryX=0;entryY=0.5;entryDx=0;entryDy=0;" edge="1" parent="1" source="aVnP62HoHRW40BTB75-h-54" target="aVnP62HoHRW40BTB75-h-5">
          <mxGeometry relative="1" as="geometry" />
        </mxCell>
        <mxCell id="aVnP62HoHRW40BTB75-h-59" value="False" style="edgeLabel;html=1;align=center;verticalAlign=middle;resizable=0;points=[];" vertex="1" connectable="0" parent="aVnP62HoHRW40BTB75-h-57">
          <mxGeometry x="-0.788" y="-2" relative="1" as="geometry">
            <mxPoint y="1" as="offset" />
          </mxGeometry>
        </mxCell>
        <mxCell id="aVnP62HoHRW40BTB75-h-65" style="edgeStyle=orthogonalEdgeStyle;rounded=0;orthogonalLoop=1;jettySize=auto;html=1;" edge="1" parent="1" source="aVnP62HoHRW40BTB75-h-54" target="aVnP62HoHRW40BTB75-h-61">
          <mxGeometry relative="1" as="geometry" />
        </mxCell>
        <mxCell id="aVnP62HoHRW40BTB75-h-54" value="max_retry_retry_count &amp;gt; current_retry_count" style="rhombus;whiteSpace=wrap;html=1;align=center;" vertex="1" parent="1">
          <mxGeometry x="-2.5" y="890" width="335" height="60" as="geometry" />
        </mxCell>
        <mxCell id="aVnP62HoHRW40BTB75-h-56" value="7. 定时抓取消息表 5分钟之内，&lt;br&gt;消息状态不是3的消息" style="text;html=1;align=center;verticalAlign=middle;resizable=0;points=[];autosize=1;" vertex="1" parent="1">
          <mxGeometry x="80" y="680" width="180" height="30" as="geometry" />
        </mxCell>
        <mxCell id="aVnP62HoHRW40BTB75-h-58" value="retry_send, 更新重试次数+1" style="text;html=1;align=center;verticalAlign=middle;resizable=0;points=[];autosize=1;" vertex="1" parent="1">
          <mxGeometry x="300" y="760" width="160" height="20" as="geometry" />
        </mxCell>
        <mxCell id="aVnP62HoHRW40BTB75-h-61" value="人工补偿" style="rounded=0;whiteSpace=wrap;html=1;align=center;" vertex="1" parent="1">
          <mxGeometry x="105" y="1020" width="120" height="60" as="geometry" />
        </mxCell>
        <mxCell id="aVnP62HoHRW40BTB75-h-62" value="" style="shape=umlActor;verticalLabelPosition=bottom;verticalAlign=top;html=1;outlineConnect=0;align=center;" vertex="1" parent="1">
          <mxGeometry x="120" y="1030" width="20" height="40" as="geometry" />
        </mxCell>
      </root>
    </mxGraphModel>
  </diagram>
</mxfile>
